<svg width="150" height="96" viewBox="0 0 150 96" fill="none" xmlns="http://www.w3.org/2000/svg">
<path d="M124.329 33.8111C111.072 20.5554 93.446 13.2549 74.6986 13.2549C66.997 13.2549 59.4266 14.4944 52.1979 16.9393C51.0483 17.328 50.4316 18.5749 50.8204 19.7245C51.2091 20.8745 52.4575 21.4906 53.6056 21.1021C60.38 18.8111 67.4769 17.6494 74.6986 17.6494C87.2427 17.6494 98.9755 21.1818 108.962 27.2984L104.989 33.3186C96.1452 27.9541 85.7767 24.8627 74.6992 24.8627C63.6164 24.8627 53.2426 27.957 44.3961 33.3266C43.0669 31.3174 41.738 29.3006 40.4126 27.2776C41.8801 26.3832 43.3889 25.5388 44.9404 24.7504C46.0221 24.2008 46.4536 22.8781 45.904 21.7961C45.3544 20.7142 44.0319 20.2832 42.9497 20.8326C40.6285 22.0121 38.3829 23.3181 36.2184 24.739C36.1968 24.7522 36.1742 24.7633 36.1525 24.7774C36.1291 24.7926 36.1083 24.8102 36.0857 24.826C27.6959 30.3608 20.5551 37.6511 15.1805 46.229C8.20229 57.3668 4.51379 70.2343 4.51379 83.4403C4.51379 84.6537 5.49729 85.6375 6.71107 85.6375H41.9633C43.1771 85.6375 44.1606 84.6537 44.1606 83.4403C44.1606 82.2268 43.1771 81.243 41.9633 81.243H20.5647C21.255 64.0269 30.0142 48.8534 43.1574 39.4107C45.9603 43.6288 48.7511 47.8016 51.4927 51.9003C56.3282 59.129 61.3178 66.5898 66.3375 74.2448C65.1106 75.3915 64.1224 76.7898 63.443 78.3807C63.0463 79.3097 62.7697 80.2692 62.6115 81.2412H51.7737C50.5599 81.2412 49.5764 82.225 49.5764 83.4385C49.5764 84.652 50.5599 85.6358 51.7737 85.6358H62.7076C62.855 86.35 63.0642 87.0564 63.3416 87.7475C64.5601 90.7812 66.8868 93.159 69.8936 94.4428C71.4378 95.1019 73.0667 95.4321 74.6971 95.4321C76.2405 95.4321 77.7853 95.1362 79.2604 94.5435C82.0785 93.4118 84.243 91.3417 85.5452 88.8379L91.0844 85.6358H131.051C131.061 85.6358 131.07 85.6372 131.08 85.6372C131.089 85.6372 131.099 85.6361 131.108 85.6358H142.688C143.902 85.6358 144.886 84.652 144.886 83.4385C144.886 64.6919 137.585 47.0674 124.329 33.8111ZM16.1673 81.243H8.94409C9.62495 60.4228 19.9586 41.4993 36.7379 29.687C38.0659 31.7138 39.3969 33.7338 40.7278 35.7459C26.401 45.9799 16.8622 62.5005 16.1673 81.243ZM77.623 90.4663C75.6783 91.2473 73.546 91.2239 71.6192 90.4015C69.6923 89.5789 68.2008 88.0548 67.42 86.1104C66.639 84.166 66.6618 82.0337 67.4848 80.1068C68.3074 78.1797 69.8315 76.6885 71.7756 75.9074C72.7313 75.5236 73.718 75.342 74.6895 75.342C77.8 75.342 80.7505 77.2047 81.9789 80.263C83.5911 84.277 81.6367 88.8541 77.623 90.4663ZM86.9342 82.9595C86.909 81.5122 86.6277 80.0462 86.057 78.625C85.4866 77.2053 84.6766 75.9525 83.6948 74.8905L108.647 68.7894C108.796 68.7534 109.25 68.6423 109.481 69.218C109.711 69.792 109.307 70.0252 109.174 70.1019L86.9342 82.9595ZM98.6861 81.2418L111.374 73.9067C113.631 72.6018 114.53 70.0011 113.559 67.5818C112.588 65.1616 110.142 63.9027 107.605 64.5203L86.2147 69.7504L94.9223 56.5532C95.5906 55.5404 95.3114 54.1775 94.2986 53.509C93.2861 52.8404 91.9229 53.1196 91.2543 54.1327L79.9363 71.2852L78.6294 71.6049C75.9554 70.6952 72.9581 70.6964 70.1373 71.829C70.1031 71.8428 70.0702 71.8586 70.0363 71.8726C64.9972 64.188 59.9938 56.7062 55.1449 49.4572C52.4085 45.3665 49.6233 41.2016 46.8266 36.9931C54.9753 32.0847 64.5126 29.2575 74.6989 29.2575C84.8828 29.2575 94.4184 32.0838 102.566 36.9902L97.0531 45.3445C96.3848 46.3573 96.664 47.7202 97.6768 48.3887C98.0495 48.6345 98.4696 48.7523 98.885 48.7523C99.5987 48.7523 100.298 48.4051 100.721 47.765L106.236 39.4074C119.382 48.8496 128.143 64.024 128.834 81.2418H98.6861ZM133.231 81.2418C132.536 62.4944 122.992 45.97 108.658 35.7371L112.631 29.7175C128.915 41.2482 139.754 59.983 140.455 81.2418H133.231Z" fill="black"/>
<path d="M8.50319 46.0567L3.52387 42.2865C2.55619 41.5541 1.17805 41.7445 0.44563 42.7119C-0.286796 43.6793 -0.096658 45.0574 0.871022 45.7901L5.85034 49.5603C6.24732 49.8606 6.71314 50.0059 7.17515 50.0059C7.8399 50.0059 8.49674 49.7057 8.92858 49.135C9.661 48.1676 9.47087 46.7894 8.50319 46.0567Z" fill="black"/>
<path d="M17.0772 34.7325L12.0979 30.9623C11.1302 30.2298 9.75204 30.4203 9.01962 31.3877C8.28748 32.355 8.47762 33.7332 9.4453 34.4659L14.4246 38.2361C14.8213 38.5364 15.2871 38.6817 15.7491 38.6817C16.4139 38.6817 17.0707 38.3814 17.5026 37.8107C18.235 36.8433 18.0449 35.4652 17.0772 34.7325Z" fill="black"/>
<path d="M149.555 42.7117C148.823 41.744 147.445 41.5539 146.477 42.2863L141.498 46.0566C140.53 46.789 140.34 48.1674 141.072 49.1348C141.505 49.7055 142.161 50.0058 142.826 50.0058C143.288 50.0058 143.754 49.8605 144.15 49.5602L149.13 45.79C150.098 45.0575 150.288 43.6794 149.555 42.7117Z" fill="black"/>
<path d="M140.981 31.3876C140.249 30.4199 138.871 30.2295 137.903 30.9622L132.924 34.7325C131.956 35.4649 131.766 36.8433 132.498 37.8107C132.93 38.3814 133.587 38.6817 134.252 38.6817C134.714 38.6817 135.18 38.5364 135.576 38.2361L140.556 34.4659C141.523 33.7334 141.713 32.355 140.981 31.3876Z" fill="black"/>
<path d="M67.5971 0C66.3833 0 65.3998 0.983793 65.3998 2.19728V8.44281C65.3998 9.65629 66.3833 10.6401 67.5971 10.6401C68.8108 10.6401 69.7943 9.65629 69.7943 8.44281V2.19728C69.7943 0.983793 68.8108 0 67.5971 0Z" fill="black"/>
<path d="M81.801 0C80.5873 0 79.6038 0.983793 79.6038 2.19728V8.44281C79.6038 9.65629 80.5876 10.6401 81.801 10.6401C83.0148 10.6401 83.9983 9.65629 83.9983 8.44281V2.19728C83.9983 0.983793 83.0148 0 81.801 0Z" fill="black"/>
</svg>
