<svg width="127" height="127" viewBox="0 0 127 127" fill="none" xmlns="http://www.w3.org/2000/svg">
<path d="M63.5001 83.6085C63.8642 83.6084 64.2222 83.5144 64.5394 83.3355L89.4102 69.3231C90.3445 68.7966 90.7373 67.6544 90.3246 66.6646C89.5979 64.949 88.3237 63.5223 86.7009 62.6069L67.6382 51.8712C65.0641 50.4262 61.9233 50.4262 59.3493 51.8712L40.2993 62.6048C38.674 63.5229 37.3994 64.9545 36.6755 66.6752C36.2628 67.665 36.6557 68.8071 37.5899 69.3337L62.4608 83.346C62.779 83.5213 63.1369 83.6116 63.5001 83.6085ZM42.3778 66.2942L61.4173 55.5711C62.7091 54.8525 64.2805 54.8525 65.5723 55.5711L84.6223 66.2963C84.8673 66.4372 85.099 66.6002 85.3145 66.7831L63.5001 79.0683L41.6984 66.7916C41.9088 66.6068 42.1363 66.4423 42.3778 66.3005V66.2942Z" fill="black"/>
<path d="M35.4351 78.3359C34.9127 78.041 34.2897 77.9816 33.7211 78.1726C33.1524 78.3635 32.6914 78.7867 32.4527 79.3371C31.991 80.3902 31.7518 81.5273 31.75 82.6772V107.823C31.7541 110.878 33.4034 113.694 36.0659 115.191L55.1159 125.923C56.3841 126.632 57.8136 127.003 59.2667 127C60.4357 127 61.3834 126.053 61.3834 124.884V94.1918C61.3832 93.4279 60.9715 92.7233 60.306 92.3482L35.4351 78.3359ZM57.15 122.21L38.1445 111.504C36.8146 110.755 35.9894 109.349 35.9833 107.823V83.5027L57.15 95.428V122.21Z" fill="black"/>
<path d="M67.7334 127C69.1866 127.004 70.6162 126.633 71.8842 125.923L90.9342 115.191C93.5967 113.694 95.246 110.878 95.2501 107.823V82.6772C95.2483 81.5273 95.009 80.3902 94.5473 79.3371C94.3087 78.7867 93.8477 78.3635 93.279 78.1726C92.7103 77.9816 92.0873 78.041 91.5649 78.3359L66.6941 92.3482C66.0286 92.7233 65.6168 93.4279 65.6167 94.1918V124.884C65.6167 126.053 66.5644 127 67.7334 127ZM69.85 95.428L91.0167 83.5027V107.823C91.0107 109.349 90.1855 110.755 88.8556 111.504L69.85 122.21V95.428Z" fill="black"/>
<path d="M63.5001 0C62.3311 0 61.3834 0.947665 61.3834 2.11667V39.3404L58.6466 36.6035C57.8161 35.8014 56.4959 35.8129 55.6794 36.6293C54.8629 37.4458 54.8515 38.766 55.6536 39.5965L62.0036 45.9465C62.4007 46.3446 62.9399 46.5684 63.5022 46.5684C64.0645 46.5684 64.6037 46.3446 65.0008 45.9465L71.3508 39.5965C72.153 38.766 72.1415 37.4458 71.3251 36.6293C70.5086 35.8129 69.1884 35.8014 68.3579 36.6035L65.6168 39.3404V2.11667C65.6168 0.947665 64.6691 0 63.5001 0Z" fill="black"/>
<path d="M2.11667 99.4833H20.2904L17.5535 102.22C17.0033 102.752 16.7826 103.539 16.9763 104.279C17.17 105.019 17.748 105.597 18.488 105.79C19.2281 105.984 20.0151 105.763 20.5465 105.213L26.8965 98.8631C27.094 98.666 27.2502 98.4314 27.3558 98.1731C27.5699 97.6553 27.5699 97.0738 27.3558 96.556C27.2502 96.2977 27.094 96.0631 26.8965 95.8659L20.5465 89.5159C19.716 88.7138 18.3958 88.7252 17.5793 89.5417C16.7628 90.3582 16.7514 91.6784 17.5535 92.5089L20.2904 95.25H2.11667C0.947665 95.25 0 96.1976 0 97.3667C0 98.5357 0.947665 99.4833 2.11667 99.4833Z" fill="black"/>
<path d="M124.883 95.25H106.71L109.447 92.5132C110.249 91.6826 110.237 90.3625 109.421 89.546C108.604 88.7295 107.284 88.718 106.454 89.5202L100.104 95.8702C99.9061 96.0673 99.7499 96.3019 99.6443 96.5602C99.4303 97.078 99.4303 97.6596 99.6443 98.1774C99.7499 98.4357 99.9061 98.6703 100.104 98.8674L106.454 105.217C107.284 106.02 108.604 106.008 109.421 105.192C110.237 104.375 110.249 103.055 109.447 102.224L106.71 99.4834H124.883C126.052 99.4834 127 98.5357 127 97.3667C127 96.1977 126.052 95.25 124.883 95.25Z" fill="black"/>
</svg>
