<svg width="112" height="112" viewBox="0 0 112 112" fill="none" xmlns="http://www.w3.org/2000/svg">
<path d="M110.061 27.0868H105.774C106.601 23.8878 106.686 20.5417 106.02 17.3051C105.354 14.0685 103.956 11.0273 101.934 8.41451C99.9108 5.80172 97.3166 3.68674 94.3498 2.23167C91.3831 0.776607 88.1227 0.0200816 84.8183 0.0200816C81.514 0.0200816 78.2535 0.776607 75.2868 2.23167C72.3201 3.68674 69.7259 5.80172 67.703 8.41451C65.6802 11.0273 64.2824 14.0685 63.6168 17.3051C62.9511 20.5417 63.0354 23.8878 63.863 27.0868H42.2646L18.352 3.17418C17.3568 2.17093 16.1733 1.37409 14.8694 0.829385C13.5655 0.28468 12.1669 0.00283327 10.7538 2.12517e-05C9.3407 -0.00279076 7.94095 0.273487 6.63489 0.812999C5.32883 1.35251 4.14217 2.14463 3.14301 3.14391C2.14385 4.14319 1.35187 5.32994 0.812512 6.63607C0.273155 7.94219 -0.00295608 9.34197 2.38659e-05 10.7551C0.00300382 12.1682 0.285016 13.5668 0.829877 14.8706C1.37474 16.1745 2.17172 17.3579 3.17508 18.3529L3.97055 19.1466C1.44899 21.9567 0.0471214 25.5948 0.0311071 29.3704V97.4339C0.0292087 99.3294 0.401161 101.207 1.12567 102.958C1.85018 104.71 2.91303 106.301 4.25337 107.642C5.59372 108.982 7.18524 110.045 8.93685 110.77C10.6885 111.494 12.5658 111.866 14.4613 111.864H110.061C110.54 111.864 110.998 111.674 111.337 111.336C111.675 110.997 111.865 110.539 111.865 110.06V28.8906C111.865 28.4122 111.675 27.9534 111.337 27.6151C110.998 27.2768 110.54 27.0868 110.061 27.0868ZM66.8915 19.5398C67.4239 14.963 69.6875 10.7633 73.2181 7.8026C76.7486 4.84186 81.2784 3.34448 85.878 3.61769C90.4776 3.8909 94.7983 5.91398 97.9535 9.27186C101.109 12.6297 102.859 17.0678 102.846 21.6755C102.861 25.7037 101.509 29.6179 99.0131 32.7795C95.8082 36.8155 93.9897 41.7771 93.8273 46.9283H90.2197V36.1056H92.0235C93.0937 36.1056 94.14 35.7883 95.0298 35.1937C95.9197 34.5991 96.6133 33.7539 97.0229 32.7651C97.4325 31.7764 97.5396 30.6883 97.3308 29.6386C97.122 28.5889 96.6066 27.6247 95.8499 26.8679C95.0931 26.1112 94.1289 25.5958 93.0792 25.387C92.0295 25.1782 90.9415 25.2854 89.9527 25.6949C88.9639 26.1045 88.1187 26.7981 87.5241 27.688C86.9295 28.5778 86.6122 29.6241 86.6122 30.6943V32.4981H83.0046V30.6943C83.0046 29.6241 82.6873 28.5778 82.0927 27.688C81.498 26.7981 80.6529 26.1045 79.6641 25.6949C78.6753 25.2854 77.5873 25.1782 76.5376 25.387C75.4879 25.5958 74.5237 26.1112 73.7669 26.8679C73.0101 27.6247 72.4948 28.5889 72.286 29.6386C72.0772 30.6883 72.1843 31.7764 72.5939 32.7651C73.0035 33.7539 73.6971 34.5991 74.5869 35.1937C75.4768 35.7883 76.523 36.1056 77.5933 36.1056H79.3971V46.9283H75.7895C75.6054 41.7247 73.7532 36.7182 70.5063 32.6478C67.6358 28.9182 66.3385 24.2135 66.8915 19.5398ZM88.4159 57.7509C88.4159 58.7077 88.0359 59.6253 87.3593 60.3018C86.6828 60.9784 85.7652 61.3584 84.8084 61.3584C83.8516 61.3584 82.934 60.9784 82.2575 60.3018C81.5809 59.6253 81.2009 58.7077 81.2009 57.7509H88.4159ZM77.5933 54.1434C77.1149 54.1434 76.6561 53.9533 76.3178 53.615C75.9796 53.2768 75.7895 52.818 75.7895 52.3396V50.5358H93.8273V52.3396C93.8273 52.818 93.6372 53.2768 93.2989 53.615C92.9607 53.9533 92.5019 54.1434 92.0235 54.1434H77.5933ZM79.3971 32.4981H77.5933C77.2366 32.4981 76.8878 32.3923 76.5912 32.1941C76.2946 31.9959 76.0634 31.7142 75.9268 31.3846C75.7903 31.055 75.7546 30.6923 75.8242 30.3424C75.8938 29.9925 76.0656 29.6711 76.3178 29.4189C76.5701 29.1666 76.8915 28.9948 77.2414 28.9252C77.5913 28.8556 77.954 28.8913 78.2836 29.0279C78.6132 29.1644 78.8949 29.3956 79.0931 29.6922C79.2913 29.9888 79.3971 30.3376 79.3971 30.6943V32.4981ZM86.6122 46.9283H83.0046V36.1056H86.6122V46.9283ZM90.2197 32.4981V30.6943C90.2197 30.3376 90.3255 29.9888 90.5237 29.6922C90.7219 29.3956 91.0036 29.1644 91.3332 29.0279C91.6628 28.8913 92.0255 28.8556 92.3754 28.9252C92.7253 28.9948 93.0467 29.1666 93.2989 29.4189C93.5512 29.6711 93.723 29.9925 93.7926 30.3424C93.8622 30.6923 93.8265 31.055 93.6899 31.3846C93.5534 31.7142 93.3222 31.9959 93.0256 32.1941C92.729 32.3923 92.3802 32.4981 92.0235 32.4981H90.2197ZM53.2586 53.2559L48.2586 51.757L51.7579 48.2577L53.2586 53.2559ZM44.3336 50.5791L39.7141 49.1938V45.1245H43.3216C43.8 45.1245 44.2588 44.9345 44.5971 44.5962C44.9354 44.2579 45.1254 43.7991 45.1254 43.3207V39.7132H49.1947L50.58 44.3344L44.3336 50.5791ZM17.0118 27.0868L20.7745 23.3241L38.9673 41.517H37.9103C37.4319 41.517 36.9731 41.707 36.6349 42.0453C36.2966 42.3835 36.1065 42.8423 36.1065 43.3207V46.1797L17.0118 27.0868ZM14.4613 24.5362L11.6005 21.6755L21.6764 11.5996L24.5372 14.4604L14.4613 24.5362ZM43.3216 36.1056C42.8433 36.1056 42.3844 36.2957 42.0462 36.6339C41.7079 36.9722 41.5179 37.431 41.5179 37.9094V38.9664L23.325 20.7736L27.0877 17.0109L46.1824 36.1056H43.3216ZM10.7636 3.63775C11.6996 3.63521 12.6268 3.81836 13.4916 4.17658C14.3563 4.53481 15.1415 5.06101 15.8015 5.72471L19.1258 9.04906L9.04997 19.1231L5.72562 15.7988C4.72897 14.8026 4.05019 13.5332 3.77516 12.1511C3.50012 10.7691 3.64119 9.3365 4.1805 8.03464C4.71982 6.73278 5.63316 5.62014 6.80497 4.83747C7.97678 4.05481 9.3544 3.63729 10.7636 3.63775ZM6.52469 21.7007L25.2839 40.4599V87.8883C25.0639 87.6394 24.8336 87.3989 24.5931 87.1668C23.2375 85.8153 21.6239 84.7502 19.8483 84.035C18.0727 83.3198 16.1714 82.9691 14.2575 83.0037C12.239 83.0417 10.2509 83.5028 8.42177 84.3573C6.59265 85.2117 4.96317 86.4405 3.63865 87.9641V29.3704C3.64877 26.5503 4.67317 23.8279 6.52469 21.7007ZM108.257 108.257H14.4613C13.027 108.257 11.6071 107.972 10.2839 107.418C8.96076 106.865 7.76081 106.054 6.75381 105.033C5.7468 104.011 4.95283 102.8 4.41805 101.469C3.88327 100.138 3.61833 98.7147 3.63865 97.2806C3.72883 94.4798 4.88162 91.8184 6.86291 89.8368C8.8442 87.8552 11.5054 86.7019 14.3062 86.6113H14.4613C17.3316 86.6113 20.0844 87.7515 22.114 89.7811C24.1437 91.8108 25.2839 94.5635 25.2839 97.4339C25.2839 97.9123 25.474 98.3711 25.8122 98.7094C26.1505 99.0476 26.6093 99.2377 27.0877 99.2377C27.5661 99.2377 28.0249 99.0476 28.3631 98.7094C28.7014 98.3711 28.8915 97.9123 28.8915 97.4339V44.0675L36.6351 51.8111C36.8462 52.0224 37.1065 52.178 37.3926 52.2638L55.4304 57.6751C55.5984 57.7251 55.7727 57.7506 55.948 57.7509C56.2292 57.7509 56.5065 57.6852 56.7577 57.559C57.0089 57.4329 57.2272 57.2497 57.3951 57.0242C57.563 56.7986 57.6758 56.537 57.7246 56.2601C57.7734 55.9832 57.7567 55.6988 57.6761 55.4294L52.2647 37.3917C52.1789 37.1056 52.0233 36.8453 51.812 36.6341L45.8722 30.6943H65.1473C65.8186 32.1659 66.653 33.5575 67.6347 34.843C70.5071 38.4152 72.1072 42.8429 72.182 47.4261V52.3396C72.182 53.7748 72.7521 55.1511 73.7669 56.166C74.7818 57.1808 76.1581 57.7509 77.5933 57.7509C77.5933 59.6645 78.3535 61.4996 79.7066 62.8527C81.0597 64.2058 82.8948 64.966 84.8084 64.966C86.722 64.966 88.5571 64.2058 89.9102 62.8527C91.2633 61.4996 92.0235 59.6645 92.0235 57.7509C93.4587 57.7509 94.835 57.1808 95.8499 56.166C96.8647 55.1511 97.4348 53.7748 97.4348 52.3396V47.4171C97.485 42.9035 99.0395 38.5357 101.852 35.0053C102.893 33.6756 103.775 32.2288 104.48 30.6943H108.257V108.257Z" fill="black"/>
<path d="M70.1274 91.3353C70.618 90.3998 71.0242 89.4225 71.3413 88.415H73.9857C74.464 88.415 74.9228 88.2249 75.2611 87.8867C75.5994 87.5484 75.7894 87.0896 75.7894 86.6112V79.3961C75.7894 78.9177 75.5994 78.4589 75.2611 78.1207C74.9228 77.7824 74.464 77.5923 73.9857 77.5923H71.3413C71.0242 76.5848 70.618 75.6075 70.1274 74.672L72.0015 72.7997C72.3397 72.4615 72.5296 72.0028 72.5296 71.5245C72.5296 71.0462 72.3397 70.5874 72.0015 70.2492L66.8986 65.1463C66.5604 64.8082 66.1017 64.6182 65.6234 64.6182C65.1451 64.6182 64.6864 64.8082 64.3481 65.1463L62.4758 67.0168C61.54 66.5279 60.5628 66.1228 59.5555 65.8065V63.1622C59.5555 62.6838 59.3654 62.225 59.0272 61.8867C58.6889 61.5484 58.2301 61.3584 57.7517 61.3584H50.5366C50.0582 61.3584 49.5994 61.5484 49.2612 61.8867C48.9229 62.225 48.7328 62.6838 48.7328 63.1622V65.8065C47.7255 66.1234 46.7482 66.529 45.8125 67.0186L43.9402 65.1463C43.5956 64.8204 43.1393 64.6388 42.665 64.6388C42.1906 64.6388 41.7343 64.8204 41.3897 65.1463L36.2868 70.2492C35.9487 70.5874 35.7587 71.0462 35.7587 71.5245C35.7587 72.0028 35.9487 72.4615 36.2868 72.7997L38.1591 74.672C37.6692 75.6076 37.2635 76.5848 36.947 77.5923H34.3027C33.8243 77.5923 33.3655 77.7824 33.0272 78.1207C32.6889 78.4589 32.4989 78.9177 32.4989 79.3961V86.6112C32.4989 87.0896 32.6889 87.5484 33.0272 87.8867C33.3655 88.2249 33.8243 88.415 34.3027 88.415H36.947C37.2641 89.4225 37.6704 90.3998 38.1609 91.3353L36.2868 93.2076C35.9487 93.5459 35.7587 94.0046 35.7587 94.4829C35.7587 94.9612 35.9487 95.4199 36.2868 95.7581L41.3897 100.861C41.728 101.199 42.1867 101.389 42.665 101.389C43.1433 101.389 43.602 101.199 43.9402 100.861L45.8125 98.9887C46.7481 99.4786 47.7254 99.8843 48.7328 100.201V102.845C48.7328 103.324 48.9229 103.782 49.2612 104.121C49.5994 104.459 50.0582 104.649 50.5366 104.649H57.7517C58.2301 104.649 58.6889 104.459 59.0272 104.121C59.3654 103.782 59.5555 103.324 59.5555 102.845V100.201C60.563 99.8837 61.5403 99.4775 62.4758 98.9869L64.3481 100.861C64.6927 101.187 65.1491 101.368 65.6234 101.368C66.0977 101.368 66.554 101.187 66.8986 100.861L72.0015 95.7581C72.3397 95.4199 72.5296 94.9612 72.5296 94.4829C72.5296 94.0046 72.3397 93.5459 72.0015 93.2076L70.1274 91.3353ZM68.2136 86.2108C67.8525 87.7916 67.2261 89.2999 66.3611 90.6715C66.1425 91.0175 66.048 91.4276 66.0933 91.8344C66.1385 92.2411 66.3207 92.6205 66.61 92.91L68.1829 94.4829L65.6324 97.0334L64.0595 95.4605C63.7703 95.1714 63.3915 94.9891 62.9851 94.9435C62.5787 94.898 62.1688 94.9918 61.8228 95.2098C60.4513 96.0762 58.9422 96.7027 57.3603 97.0623C56.9617 97.153 56.6058 97.3765 56.3508 97.696C56.0958 98.0155 55.957 98.4122 55.957 98.8209V101.041H52.3404V98.8209C52.3404 98.4122 52.2015 98.0155 51.9465 97.696C51.6916 97.3765 51.3356 97.153 50.9371 97.0623C49.3551 96.7027 47.846 96.0762 46.4745 95.2098C46.1285 94.9918 45.7187 94.898 45.3123 94.9435C44.9059 94.9891 44.527 95.1714 44.2378 95.4605L42.665 97.0334L40.1144 94.4829L41.6873 92.91C41.9766 92.6205 42.1589 92.2411 42.2041 91.8344C42.2493 91.4276 42.1549 91.0175 41.9362 90.6715C41.0712 89.2999 40.4449 87.7916 40.0838 86.2108C39.993 85.8122 39.7696 85.4563 39.45 85.2013C39.1305 84.9463 38.7339 84.8075 38.3251 84.8074H36.1064V81.1999H38.3251C38.7339 81.1999 39.1305 81.061 39.45 80.806C39.7696 80.5511 39.993 80.1951 40.0838 79.7966C40.4449 78.2157 41.0712 76.7074 41.9362 75.3358C42.1549 74.9898 42.2493 74.5797 42.2041 74.173C42.1589 73.7662 41.9766 73.3869 41.6873 73.0973L40.1144 71.5245L42.665 68.9739L44.2378 70.5468C44.527 70.836 44.9059 71.0183 45.3123 71.0638C45.7187 71.1094 46.1285 71.0155 46.4745 70.7975C47.846 69.9309 49.3551 69.3045 50.9371 68.9451C51.3359 68.8542 51.6921 68.6305 51.9471 68.3106C52.2021 67.9907 52.3408 67.5937 52.3404 67.1846V64.9659H55.9479V67.1846C55.9475 67.5937 56.0862 67.9907 56.3412 68.3106C56.5962 68.6305 56.9524 68.8542 57.3513 68.9451C58.9332 69.3045 60.4424 69.9309 61.8138 70.7975C62.1598 71.0155 62.5696 71.1094 62.976 71.0638C63.3824 71.0183 63.7613 70.836 64.0505 70.5468L65.6234 68.9739L68.1739 71.5245L66.601 73.0973C66.3117 73.3869 66.1295 73.7662 66.0842 74.173C66.039 74.5797 66.1335 74.9898 66.3521 75.3358C67.2202 76.7068 67.8497 78.2151 68.2136 79.7966C68.304 80.1936 68.5261 80.5484 68.8438 80.8032C69.1615 81.058 69.556 81.1978 69.9632 81.1999H72.1819V84.8074H69.9632C69.556 84.8095 69.1615 84.9493 68.8438 85.2041C68.5261 85.4589 68.304 85.8137 68.2136 86.2108Z" fill="black"/>
<path d="M54.1443 72.1812C52.0038 72.1812 49.9113 72.8159 48.1316 74.0051C46.3518 75.1943 44.9646 76.8846 44.1455 78.8621C43.3263 80.8397 43.112 83.0158 43.5296 85.1152C43.9472 87.2146 44.978 89.143 46.4915 90.6565C48.0051 92.1701 49.9335 93.2009 52.0329 93.6185C54.1323 94.0361 56.3084 93.8217 58.2859 93.0026C60.2635 92.1835 61.9538 90.7963 63.143 89.0165C64.3322 87.2367 64.9669 85.1443 64.9669 83.0038C64.9641 80.1343 63.8229 77.3832 61.7939 75.3542C59.7649 73.3252 57.0138 72.184 54.1443 72.1812ZM54.1443 90.2189C52.7173 90.2189 51.3223 89.7957 50.1358 89.0029C48.9493 88.2101 48.0245 87.0833 47.4784 85.7649C46.9323 84.4465 46.7894 82.9958 47.0678 81.5962C47.3462 80.1966 48.0334 78.911 49.0425 77.9019C50.0515 76.8929 51.3371 76.2057 52.7367 75.9273C54.1363 75.6489 55.587 75.7918 56.9054 76.3379C58.2238 76.884 59.3506 77.8088 60.1434 78.9953C60.9362 80.1818 61.3594 81.5768 61.3594 83.0038C61.3594 84.9173 60.5992 86.7525 59.2461 88.1056C57.893 89.4587 56.0579 90.2189 54.1443 90.2189Z" fill="black"/>
<path d="M95.631 21.6754H99.2385C99.2342 17.8496 97.7125 14.1817 95.0073 11.4765C92.302 8.77123 88.6342 7.24954 84.8083 7.24524V10.8528C87.6778 10.8556 90.4289 11.9968 92.4579 14.0258C94.487 16.0548 95.6281 18.806 95.631 21.6754Z" fill="black"/>
<path d="M92.9254 77.5923C91.2511 77.5923 89.6453 76.9272 88.4613 75.7432C87.2774 74.5593 86.6122 72.9535 86.6122 71.2791V68.5735H83.0047V71.2791C83.0076 73.9094 84.0537 76.4311 85.9136 78.291C87.7735 80.1509 90.2952 81.197 92.9254 81.1999C95.0782 81.1999 97.1428 82.0551 98.665 83.5773C100.187 85.0995 101.042 87.1641 101.042 89.3169C101.042 91.4696 100.187 93.5342 98.665 95.0564C97.1428 96.5787 95.0782 97.4338 92.9254 97.4338H73.9858V101.041H92.9254C96.035 101.041 99.0172 99.8061 101.216 97.6074C103.415 95.4086 104.65 92.4264 104.65 89.3169C104.65 86.2073 103.415 83.2251 101.216 81.0264C99.0172 78.8276 96.035 77.5923 92.9254 77.5923Z" fill="black"/>
</svg>
